<svg xmlns="http://www.w3.org/2000/svg" xmlns:xlink="http://www.w3.org/1999/xlink" width="100" zoomAndPan="magnify" viewBox="0 0 75 60" height="80" preserveAspectRatio="xMidYMid meet" version="1.0"><defs><g/><clipPath id="cb4ffa885b"><path d="M 52 9 L 60.183594 9 L 60.183594 18 L 52 18 Z M 52 9 " clip-rule="nonzero"/></clipPath><clipPath id="eb6c485ab4"><path d="M 45 2.390625 L 51 2.390625 L 51 7 L 45 7 Z M 45 2.390625 " clip-rule="nonzero"/></clipPath><clipPath id="6d3b253293"><path d="M 15.476562 26.113281 L 30.980469 26.113281 L 30.980469 44.863281 L 15.476562 44.863281 Z M 15.476562 26.113281 " clip-rule="nonzero"/></clipPath></defs><path fill="#0071a8" d="M 26.328125 15.695312 C 34.03125 12.488281 41.929688 11.957031 48.238281 13.707031 C 41.0625 10.527344 31.089844 10.613281 21.398438 14.652344 C 6.035156 21.054688 -2.789062 34.960938 1.691406 45.714844 C 4.996094 53.640625 14.605469 57.632812 25.589844 56.617188 C 12.179688 53.460938 9.164062 47.554688 7.957031 44.648438 C 3.777344 34.628906 12.003906 21.664062 26.328125 15.695312 Z M 26.328125 15.695312 " fill-opacity="1" fill-rule="nonzero"/><path fill="#62c7e3" d="M 58.703125 23.503906 C 57.855469 21.476562 56.496094 19.769531 54.757812 18.40625 C 49.03125 13.90625 39.144531 13.148438 29.597656 17.128906 C 22.585938 20.050781 17.25 24.902344 14.585938 30.144531 C 17.765625 26.089844 22.441406 22.503906 28.167969 20.121094 C 40.15625 15.128906 52.644531 17.070312 57.925781 24.257812 C 58.539062 25.097656 59.0625 26.003906 59.46875 26.976562 C 59.519531 27.09375 59.554688 27.210938 59.601562 27.328125 C 59.507812 26.015625 59.214844 24.734375 58.703125 23.503906 Z M 58.703125 23.503906 " fill-opacity="1" fill-rule="nonzero"/><g clip-path="url(#cb4ffa885b)"><path fill="#14bbe2" d="M 60.175781 13.691406 C 57.226562 14.234375 56.789062 14.671875 56.246094 17.621094 C 55.699219 14.671875 55.261719 14.234375 52.3125 13.691406 C 55.261719 13.144531 55.699219 12.707031 56.246094 9.757812 C 56.789062 12.710938 57.226562 13.148438 60.175781 13.691406 Z M 60.175781 13.691406 " fill-opacity="1" fill-rule="nonzero"/></g><g clip-path="url(#eb6c485ab4)"><path fill="#62c7e3" d="M 50.371094 4.621094 C 48.902344 5.042969 48.5625 5.382812 48.140625 6.851562 C 47.71875 5.382812 47.375 5.042969 45.910156 4.621094 C 47.375 4.199219 47.71875 3.859375 48.140625 2.390625 C 48.5625 3.859375 48.902344 4.199219 50.371094 4.621094 Z M 50.371094 4.621094 " fill-opacity="1" fill-rule="nonzero"/></g><path fill="#0071a8" d="M 56.246094 6.113281 C 55.511719 6.328125 55.339844 6.5 55.128906 7.230469 C 54.914062 6.5 54.742188 6.328125 54.011719 6.113281 C 54.742188 5.902344 54.914062 5.730469 55.128906 4.996094 C 55.339844 5.730469 55.511719 5.902344 56.246094 6.113281 Z M 56.246094 6.113281 " fill-opacity="1" fill-rule="nonzero"/><g fill="#0071a8" fill-opacity="1"><g transform="translate(43.639974, 46.216035)"><g><path d="M 4.1875 -13.921875 L 4.1875 0 L 1.015625 0 L 1.015625 -13.921875 Z M 4.1875 -13.921875 "/></g></g></g><g fill="#0071a8" fill-opacity="1"><g transform="translate(48.837831, 46.216035)"><g><path d="M 1.015625 -13.921875 L 5.046875 -13.921875 C 6.984375 -13.921875 8.632812 -13.257812 10 -11.9375 C 11.375 -10.613281 12.0625 -8.957031 12.0625 -6.96875 C 12.0625 -4.96875 11.378906 -3.304688 10.015625 -1.984375 C 8.648438 -0.660156 6.992188 0 5.046875 0 L 1.015625 0 Z M 4.1875 -2.828125 L 4.671875 -2.828125 C 5.828125 -2.828125 6.773438 -3.21875 7.515625 -4 C 8.253906 -4.789062 8.628906 -5.773438 8.640625 -6.953125 C 8.640625 -8.128906 8.269531 -9.113281 7.53125 -9.90625 C 6.789062 -10.695312 5.835938 -11.09375 4.671875 -11.09375 L 4.1875 -11.09375 Z M 4.1875 -2.828125 "/></g></g></g><g fill="#0071a8" fill-opacity="1"><g transform="translate(61.292434, 46.216035)"><g><path d="M -0.5 -13.921875 L 3.3125 -13.921875 L 6.203125 -9.46875 L 9.109375 -13.921875 L 12.921875 -13.921875 L 7.796875 -6.25 L 7.796875 0 L 4.625 0 L 4.625 -6.25 Z M -0.5 -13.921875 "/></g></g></g><g fill="#0071a8" fill-opacity="1"><g transform="translate(33.961887, 47.075233)"><g><path d="M 6.328125 -24.671875 C 6.546875 -24.671875 6.71875 -24.59375 6.84375 -24.4375 C 6.96875 -24.28125 7.03125 -24.097656 7.03125 -23.890625 C 6.6875 -19.742188 6.429688 -15.882812 6.265625 -12.3125 C 6.210938 -10.53125 6.1875 -9.21875 6.1875 -8.375 L 6.09375 -8.375 C 5.96875 -8.375 5.882812 -8.363281 5.84375 -8.34375 L 5.8125 -8.09375 L 5.875 -8.09375 C 5.800781 -7.976562 5.671875 -7.882812 5.484375 -7.8125 C 5.703125 -7.71875 5.9375 -7.671875 6.1875 -7.671875 L 6.1875 -6.65625 L 6.015625 -6.65625 L 5.875 -6.578125 L 5.765625 -6.546875 C 5.765625 -6.546875 5.742188 -6.519531 5.703125 -6.46875 L 5.703125 -6.328125 C 5.679688 -6.285156 5.671875 -6.226562 5.671875 -6.15625 C 5.671875 -6.019531 5.679688 -5.90625 5.703125 -5.8125 L 5.84375 -5.90625 L 5.90625 -5.953125 L 6.09375 -6.046875 C 6.113281 -6.078125 6.125 -6.140625 6.125 -6.234375 L 6.15625 -6.265625 L 6.1875 -6.265625 C 6.164062 -6.023438 6.15625 -5.519531 6.15625 -4.75 C 6.113281 -4.800781 6.054688 -4.800781 5.984375 -4.75 C 5.984375 -4.65625 5.992188 -4.609375 6.015625 -4.609375 L 6.046875 -4.578125 L 6.046875 -4.546875 L 6.125 -4.546875 L 6.125 -4.578125 L 6.15625 -4.578125 L 6.15625 -3.265625 C 6.15625 -3.359375 6.109375 -3.441406 6.015625 -3.515625 L 5.734375 -3.515625 C 5.734375 -3.441406 5.742188 -3.40625 5.765625 -3.40625 L 5.765625 -3.3125 L 5.8125 -3.265625 L 5.8125 -3.234375 C 5.90625 -3.210938 6.019531 -3.222656 6.15625 -3.265625 L 6.15625 -0.8125 C 6.15625 -0.34375 5.921875 -0.109375 5.453125 -0.109375 L 0.390625 0 C 0.179688 0 0.00390625 -0.0664062 -0.140625 -0.203125 C -0.285156 -0.347656 -0.359375 -0.523438 -0.359375 -0.734375 C -0.265625 -5.804688 -0.144531 -9.609375 0 -12.140625 C 0.144531 -15.191406 0.273438 -17.457031 0.390625 -18.9375 C 0.410156 -18.90625 0.445312 -18.890625 0.5 -18.890625 L 0.53125 -19.078125 C 0.507812 -19.097656 0.472656 -19.109375 0.421875 -19.109375 L 0.734375 -23.859375 C 0.765625 -24.304688 1.015625 -24.53125 1.484375 -24.53125 Z M 2.75 -23.609375 C 2.789062 -23.679688 2.847656 -23.71875 2.921875 -23.71875 C 3.109375 -23.71875 3.238281 -23.632812 3.3125 -23.46875 C 3.375 -23.300781 3.441406 -23.207031 3.515625 -23.1875 C 3.566406 -23.238281 3.59375 -23.320312 3.59375 -23.4375 C 3.539062 -23.507812 3.585938 -23.566406 3.734375 -23.609375 L 4.15625 -23.609375 C 4.15625 -23.703125 4.109375 -23.757812 4.015625 -23.78125 C 3.867188 -23.757812 3.785156 -23.757812 3.765625 -23.78125 C 3.742188 -23.8125 3.695312 -23.828125 3.625 -23.828125 L 3.453125 -23.75 C 3.378906 -23.675781 3.332031 -23.640625 3.3125 -23.640625 C 3.238281 -23.640625 3.164062 -23.675781 3.09375 -23.75 L 2.921875 -23.828125 L 2.421875 -23.828125 C 2.453125 -23.753906 2.441406 -23.691406 2.390625 -23.640625 L 2.1875 -23.640625 C 2.113281 -23.765625 2.078125 -23.800781 2.078125 -23.75 C 2.078125 -23.769531 2.050781 -23.757812 2 -23.71875 L 1.9375 -23.578125 L 1.796875 -23.578125 C 1.796875 -23.578125 1.757812 -23.613281 1.6875 -23.6875 C 1.664062 -23.707031 1.628906 -23.753906 1.578125 -23.828125 C 1.484375 -23.828125 1.410156 -23.832031 1.359375 -23.84375 C 1.316406 -23.851562 1.285156 -23.859375 1.265625 -23.859375 C 1.265625 -23.835938 1.242188 -23.800781 1.203125 -23.75 C 1.148438 -23.726562 1.125 -23.691406 1.125 -23.640625 C 1.125 -23.503906 1.148438 -23.410156 1.203125 -23.359375 C 1.265625 -23.296875 1.285156 -23.144531 1.265625 -22.90625 L 1.15625 -22.59375 L 1.0625 -22.234375 C 1.0625 -22.191406 1.082031 -22.144531 1.125 -22.09375 C 1.175781 -22.050781 1.203125 -22.003906 1.203125 -21.953125 C 1.148438 -21.953125 1.125 -21.941406 1.125 -21.921875 C 1.050781 -21.847656 1.015625 -21.800781 1.015625 -21.78125 C 1.109375 -21.757812 1.132812 -21.675781 1.09375 -21.53125 C 1.019531 -21.457031 0.984375 -21.390625 0.984375 -21.328125 C 0.984375 -21.085938 0.992188 -20.910156 1.015625 -20.796875 L 1.09375 -20.40625 C 1.09375 -20.363281 1.054688 -20.316406 0.984375 -20.265625 L 1.0625 -20.265625 L 1.09375 -20.234375 C 1.226562 -20.304688 1.359375 -20.34375 1.484375 -20.34375 L 1.484375 -20.65625 C 1.410156 -20.675781 1.347656 -20.726562 1.296875 -20.8125 C 1.253906 -20.894531 1.242188 -20.957031 1.265625 -21 L 1.578125 -21.109375 L 1.828125 -21.21875 C 1.753906 -21.257812 1.71875 -21.296875 1.71875 -21.328125 C 1.71875 -21.441406 1.8125 -21.5 2 -21.5 C 1.957031 -21.539062 1.9375 -21.578125 1.9375 -21.609375 L 1.90625 -21.671875 C 2.039062 -21.816406 2.109375 -21.890625 2.109375 -21.890625 C 2.109375 -21.929688 2.085938 -21.976562 2.046875 -22.03125 L 1.96875 -22.171875 C 2.0625 -22.265625 2.15625 -22.3125 2.25 -22.3125 L 2.609375 -22.375 C 2.367188 -22.375 2.25 -22.421875 2.25 -22.515625 C 2.25 -22.566406 2.296875 -22.617188 2.390625 -22.671875 C 2.484375 -22.734375 2.585938 -22.765625 2.703125 -22.765625 C 2.609375 -22.835938 2.585938 -22.921875 2.640625 -23.015625 C 2.617188 -23.015625 2.582031 -23.03125 2.53125 -23.0625 C 2.488281 -23.101562 2.46875 -23.144531 2.46875 -23.1875 C 2.46875 -23.257812 2.546875 -23.332031 2.703125 -23.40625 C 2.753906 -23.445312 2.753906 -23.476562 2.703125 -23.5 C 2.703125 -23.550781 2.71875 -23.585938 2.75 -23.609375 Z M 2.8125 -22.65625 C 2.8125 -22.632812 2.835938 -22.625 2.890625 -22.625 C 3.078125 -22.625 3.191406 -22.648438 3.234375 -22.703125 L 3.265625 -22.765625 L 3.265625 -22.875 C 3.265625 -22.945312 3.28125 -22.992188 3.3125 -23.015625 C 3.21875 -23.015625 3.171875 -22.988281 3.171875 -22.9375 C 3.117188 -22.84375 3.09375 -22.785156 3.09375 -22.765625 C 3.019531 -22.671875 2.925781 -22.632812 2.8125 -22.65625 Z M 1.515625 -19.078125 C 1.421875 -19.191406 1.382812 -19.296875 1.40625 -19.390625 C 1.40625 -19.503906 1.460938 -19.585938 1.578125 -19.640625 C 1.648438 -19.640625 1.734375 -19.6875 1.828125 -19.78125 C 1.804688 -19.914062 1.710938 -19.984375 1.546875 -19.984375 C 1.410156 -19.960938 1.269531 -19.960938 1.125 -19.984375 C 1.125 -19.910156 1.097656 -19.84375 1.046875 -19.78125 C 1.003906 -19.726562 0.972656 -19.691406 0.953125 -19.671875 C 1.023438 -19.617188 1.070312 -19.566406 1.09375 -19.515625 C 1.113281 -19.472656 1.101562 -19.421875 1.0625 -19.359375 L 1.015625 -19.140625 L 1.0625 -18.859375 C 1.007812 -18.765625 0.984375 -18.695312 0.984375 -18.65625 C 0.910156 -18.582031 0.910156 -18.519531 0.984375 -18.46875 C 0.984375 -18.445312 0.988281 -18.429688 1 -18.421875 C 1.007812 -18.410156 1.03125 -18.394531 1.0625 -18.375 C 1.082031 -18.375 1.113281 -18.347656 1.15625 -18.296875 L 0.984375 -15.90625 C 0.816406 -15.8125 0.757812 -15.765625 0.8125 -15.765625 C 0.851562 -15.765625 0.910156 -15.726562 0.984375 -15.65625 C 0.960938 -15.582031 0.90625 -15.535156 0.8125 -15.515625 L 0.78125 -15.203125 C 0.914062 -15.128906 0.960938 -15.082031 0.921875 -15.0625 L 0.8125 -14.953125 L 0.984375 -14.8125 L 0.875 -13.296875 C 0.78125 -13.222656 0.734375 -13.15625 0.734375 -13.09375 C 0.734375 -13.039062 0.78125 -12.96875 0.875 -12.875 C 0.875 -12.875 0.878906 -12.867188 0.890625 -12.859375 C 0.910156 -12.847656 0.921875 -12.84375 0.921875 -12.84375 C 0.921875 -12.789062 0.894531 -12.75 0.84375 -12.71875 C 0.800781 -12.6875 0.753906 -12.65625 0.703125 -12.625 C 0.722656 -12.5625 0.726562 -12.5 0.71875 -12.4375 C 0.707031 -12.375 0.664062 -12.332031 0.59375 -12.3125 C 0.738281 -12.21875 0.8125 -12.125 0.8125 -12.03125 C 0.8125 -11.957031 0.796875 -11.890625 0.765625 -11.828125 C 0.742188 -11.773438 0.722656 -11.726562 0.703125 -11.6875 C 0.628906 -11.5 0.5625 -11.40625 0.5 -11.40625 C 0.65625 -11.3125 0.734375 -11.238281 0.734375 -11.1875 C 0.734375 -11.1875 0.726562 -11.179688 0.71875 -11.171875 C 0.707031 -11.160156 0.703125 -11.15625 0.703125 -11.15625 L 0.703125 -11.1875 C 0.628906 -11.113281 0.566406 -11.035156 0.515625 -10.953125 C 0.472656 -10.878906 0.453125 -10.816406 0.453125 -10.765625 C 0.453125 -10.722656 0.46875 -10.6875 0.5 -10.65625 C 0.539062 -10.632812 0.5625 -10.613281 0.5625 -10.59375 L 0.453125 -10.515625 C 0.523438 -10.492188 0.5625 -10.425781 0.5625 -10.3125 L 0.5625 -10.03125 C 0.5625 -10.03125 0.554688 -10.007812 0.546875 -9.96875 C 0.535156 -9.9375 0.519531 -9.875 0.5 -9.78125 C 0.5 -9.757812 0.488281 -9.734375 0.46875 -9.703125 C 0.457031 -9.679688 0.453125 -9.660156 0.453125 -9.640625 L 0.5625 -9.4375 C 0.613281 -9.382812 0.640625 -9.320312 0.640625 -9.25 C 0.640625 -9.1875 0.613281 -9.128906 0.5625 -9.078125 C 0.488281 -8.984375 0.453125 -8.914062 0.453125 -8.875 C 0.453125 -8.820312 0.46875 -8.796875 0.5 -8.796875 L 0.5 -8.71875 L 0.703125 -8.71875 C 0.660156 -8.71875 0.640625 -8.753906 0.640625 -8.828125 C 0.609375 -8.859375 0.59375 -8.894531 0.59375 -8.9375 C 0.71875 -9.007812 0.8125 -9.046875 0.875 -9.046875 C 0.832031 -9.117188 0.785156 -9.238281 0.734375 -9.40625 C 0.691406 -9.582031 0.671875 -9.742188 0.671875 -9.890625 C 0.671875 -9.929688 0.691406 -9.976562 0.734375 -10.03125 C 0.785156 -10.070312 0.8125 -10.234375 0.8125 -10.515625 L 0.875 -10.796875 C 0.945312 -10.867188 0.945312 -10.914062 0.875 -10.9375 C 0.851562 -10.96875 0.867188 -11.039062 0.921875 -11.15625 L 1.0625 -11.15625 C 0.988281 -11.457031 0.953125 -11.644531 0.953125 -11.71875 C 0.953125 -11.8125 0.972656 -11.914062 1.015625 -12.03125 C 1.066406 -12.144531 1.113281 -12.238281 1.15625 -12.3125 L 0.984375 -12.3125 L 0.984375 -12.28125 L 0.8125 -12.28125 C 0.8125 -12.300781 0.785156 -12.3125 0.734375 -12.3125 L 1.015625 -12.59375 C 1.109375 -12.6875 1.15625 -12.757812 1.15625 -12.8125 L 1.09375 -13.125 C 1.019531 -13.289062 1.019531 -13.441406 1.09375 -13.578125 L 1.375 -13.578125 C 1.1875 -13.578125 1.09375 -13.640625 1.09375 -13.765625 C 1.09375 -13.828125 1.140625 -13.953125 1.234375 -14.140625 C 1.328125 -14.304688 1.375 -14.445312 1.375 -14.5625 L 1.34375 -14.921875 C 1.3125 -14.941406 1.296875 -14.988281 1.296875 -15.0625 C 1.253906 -15.15625 1.234375 -15.257812 1.234375 -15.375 L 1.203125 -15.546875 C 1.203125 -15.597656 1.222656 -15.660156 1.265625 -15.734375 C 1.335938 -15.960938 1.363281 -16.066406 1.34375 -16.046875 C 1.34375 -16.085938 1.363281 -16.203125 1.40625 -16.390625 L 1.4375 -16.53125 C 1.4375 -16.5625 1.414062 -16.644531 1.375 -16.78125 C 1.300781 -16.988281 1.300781 -17.117188 1.375 -17.171875 C 1.394531 -17.210938 1.441406 -17.257812 1.515625 -17.3125 C 1.535156 -17.40625 1.546875 -17.570312 1.546875 -17.8125 C 1.546875 -18.039062 1.601562 -18.179688 1.71875 -18.234375 C 1.53125 -18.347656 1.507812 -18.453125 1.65625 -18.546875 L 1.546875 -18.71875 C 1.597656 -18.789062 1.585938 -18.910156 1.515625 -19.078125 Z M 4.96875 -18.890625 C 4.96875 -18.890625 4.929688 -18.859375 4.859375 -18.796875 L 5.0625 -18.796875 Z M 5.59375 -18.578125 L 5.84375 -18.71875 L 5.625 -18.796875 C 5.53125 -18.703125 5.484375 -18.65625 5.484375 -18.65625 Z M 6.046875 -15.484375 C 6.023438 -15.484375 6.015625 -15.492188 6.015625 -15.515625 L 5.953125 -15.515625 L 5.875 -15.484375 C 5.875 -15.484375 5.867188 -15.476562 5.859375 -15.46875 C 5.847656 -15.457031 5.84375 -15.453125 5.84375 -15.453125 C 5.84375 -15.453125 5.835938 -15.441406 5.828125 -15.421875 C 5.816406 -15.410156 5.796875 -15.40625 5.765625 -15.40625 L 5.90625 -15.375 C 5.9375 -15.351562 5.96875 -15.347656 6 -15.359375 C 6.03125 -15.367188 6.046875 -15.382812 6.046875 -15.40625 Z M 5.453125 -14.328125 C 5.359375 -14.421875 5.242188 -14.46875 5.109375 -14.46875 C 5.109375 -14.375 5.140625 -14.289062 5.203125 -14.21875 Z M 5.140625 -13.296875 L 5.140625 -13.40625 L 5 -13.40625 L 5 -13.296875 Z M 4.109375 -13.09375 L 4.15625 -13.296875 C 4.007812 -13.296875 3.914062 -13.226562 3.875 -13.09375 Z M 5.3125 -12.84375 L 5.203125 -12.953125 L 4.96875 -12.953125 L 4.921875 -12.8125 C 4.921875 -12.6875 5.003906 -12.625 5.171875 -12.625 L 5.203125 -12.671875 C 5.234375 -12.691406 5.253906 -12.707031 5.265625 -12.71875 C 5.273438 -12.726562 5.28125 -12.742188 5.28125 -12.765625 Z M 4.609375 -12.53125 L 4.6875 -12.5625 L 4.71875 -12.59375 C 4.8125 -12.664062 4.859375 -12.722656 4.859375 -12.765625 C 4.878906 -12.835938 4.820312 -12.875 4.6875 -12.875 L 4.640625 -12.8125 L 4.640625 -12.703125 Z M 4.296875 -11.96875 L 4.15625 -12.03125 L 4.078125 -11.75 L 4.25 -11.609375 L 4.4375 -11.71875 C 4.53125 -11.757812 4.578125 -11.796875 4.578125 -11.828125 C 4.578125 -11.847656 4.554688 -11.867188 4.515625 -11.890625 C 4.484375 -11.910156 4.457031 -11.921875 4.4375 -11.921875 Z M 5.28125 -11.328125 L 5.28125 -11.4375 L 5.0625 -11.4375 L 5.0625 -11.328125 Z M 4.921875 -11.046875 C 4.898438 -11.046875 4.890625 -11.070312 4.890625 -11.125 L 4.640625 -11.125 L 4.640625 -10.9375 L 4.921875 -10.9375 Z M 5.3125 -10.203125 C 5.21875 -10.296875 5.125 -10.34375 5.03125 -10.34375 C 4.9375 -10.320312 4.890625 -10.253906 4.890625 -10.140625 L 5.03125 -10.140625 C 5.050781 -10.109375 5.097656 -10.09375 5.171875 -10.09375 Z M 5.984375 -9.8125 C 5.929688 -9.957031 5.835938 -10.003906 5.703125 -9.953125 C 5.628906 -9.890625 5.617188 -9.859375 5.671875 -9.859375 L 5.671875 -9.75 Z M 4.921875 -9.390625 C 4.878906 -9.367188 4.8125 -9.351562 4.71875 -9.34375 C 4.625 -9.332031 4.515625 -9.300781 4.390625 -9.25 L 4.390625 -9.109375 C 4.390625 -9.109375 4.394531 -9.101562 4.40625 -9.09375 C 4.425781 -9.082031 4.4375 -9.078125 4.4375 -9.078125 L 4.5 -9.078125 L 4.546875 -9.046875 L 4.859375 -9.046875 L 4.859375 -9.21875 C 4.992188 -9.21875 5.085938 -9.226562 5.140625 -9.25 C 5.140625 -9.300781 5.128906 -9.335938 5.109375 -9.359375 L 5.0625 -9.4375 L 5.0625 -9.46875 L 5.109375 -9.640625 L 4.640625 -9.671875 C 4.640625 -9.515625 4.65625 -9.421875 4.6875 -9.390625 Z M 4.5 -8.96875 C 4.5 -8.945312 4.453125 -8.9375 4.359375 -8.9375 L 4.390625 -8.96875 C 4.347656 -9.019531 4.269531 -9.046875 4.15625 -9.046875 L 4.078125 -8.875 L 4.15625 -8.875 C 4.15625 -8.875 4.160156 -8.863281 4.171875 -8.84375 C 4.179688 -8.832031 4.1875 -8.828125 4.1875 -8.828125 C 4.207031 -8.828125 4.242188 -8.804688 4.296875 -8.765625 L 4.359375 -8.875 L 4.4375 -8.828125 C 4.4375 -8.785156 4.457031 -8.765625 4.5 -8.765625 L 4.75 -8.796875 C 4.75 -8.910156 4.664062 -8.96875 4.5 -8.96875 Z M 4.359375 -8.515625 L 4.359375 -8.484375 L 4.390625 -8.4375 L 4.6875 -8.4375 C 4.613281 -8.53125 4.484375 -8.578125 4.296875 -8.578125 C 4.335938 -8.554688 4.347656 -8.535156 4.328125 -8.515625 Z M 0.671875 -8.4375 C 0.554688 -8.28125 0.5 -8.222656 0.5 -8.265625 C 0.425781 -8.191406 0.390625 -8.132812 0.390625 -8.09375 L 0.359375 -6.890625 C 0.359375 -6.921875 0.378906 -7.03125 0.421875 -7.21875 C 0.421875 -7.351562 0.425781 -7.441406 0.4375 -7.484375 C 0.445312 -7.535156 0.453125 -7.570312 0.453125 -7.59375 C 0.453125 -7.625 0.476562 -7.707031 0.53125 -7.84375 C 0.601562 -7.914062 0.640625 -7.972656 0.640625 -8.015625 Z M 5 -8.265625 L 5.03125 -8.234375 L 5.0625 -8.15625 L 5.140625 -8.125 C 5.140625 -8.101562 5.148438 -8.09375 5.171875 -8.09375 C 5.191406 -8.09375 5.203125 -8.101562 5.203125 -8.125 L 5.28125 -8.203125 C 5.28125 -8.242188 5.269531 -8.273438 5.25 -8.296875 C 5.25 -8.296875 5.234375 -8.300781 5.203125 -8.3125 C 5.179688 -8.332031 5.171875 -8.351562 5.171875 -8.375 L 5.109375 -8.375 L 5.0625 -8.4375 L 4.828125 -8.4375 L 4.6875 -8.34375 L 4.828125 -8.234375 L 4.890625 -8.234375 L 4.921875 -8.265625 Z M 4.296875 -8.203125 L 4.296875 -8.09375 L 4.5 -8.15625 L 4.46875 -8.296875 Z M 6.1875 -8.09375 L 6.1875 -7.671875 C 6.144531 -7.710938 6.125 -7.734375 6.125 -7.734375 L 6.046875 -7.78125 L 6.046875 -7.8125 C 6.097656 -7.8125 6.125 -7.847656 6.125 -7.921875 L 6.125 -8.09375 Z M 4.578125 -7.84375 C 4.523438 -7.84375 4.453125 -7.796875 4.359375 -7.703125 L 4.46875 -7.59375 C 4.5625 -7.59375 4.644531 -7.628906 4.71875 -7.703125 C 4.738281 -7.796875 4.691406 -7.84375 4.578125 -7.84375 Z M 3.765625 -7.28125 C 3.785156 -7.1875 3.84375 -7.140625 3.9375 -7.140625 C 3.988281 -7.140625 4.015625 -7.148438 4.015625 -7.171875 L 4.078125 -7.171875 L 4.15625 -7.21875 L 4.1875 -7.421875 L 4.078125 -7.5 C 4.035156 -7.5 4 -7.507812 3.96875 -7.53125 C 3.90625 -7.53125 3.875 -7.566406 3.875 -7.640625 L 3.65625 -7.640625 L 3.59375 -7.59375 L 3.59375 -7.5625 L 3.515625 -7.53125 L 3.484375 -7.5 C 3.554688 -7.425781 3.613281 -7.390625 3.65625 -7.390625 Z M 5 -7.421875 L 4.359375 -7.5 L 4.359375 -7.3125 Z M 3.453125 -6.71875 C 3.515625 -6.644531 3.609375 -6.609375 3.734375 -6.609375 L 3.828125 -6.859375 L 3.515625 -6.859375 Z M 4.921875 -6.546875 C 5.015625 -6.617188 5.0625 -6.6875 5.0625 -6.75 C 5.019531 -6.800781 4.941406 -6.828125 4.828125 -6.828125 L 4.78125 -6.828125 C 4.664062 -6.753906 4.609375 -6.695312 4.609375 -6.65625 C 4.609375 -6.582031 4.644531 -6.546875 4.71875 -6.546875 Z M 5.671875 -6.65625 C 5.640625 -6.675781 5.566406 -6.6875 5.453125 -6.6875 C 5.335938 -6.570312 5.300781 -6.476562 5.34375 -6.40625 C 5.488281 -6.382812 5.597656 -6.40625 5.671875 -6.46875 Z M 0.25 -6.265625 C 0.34375 -6.265625 0.390625 -6.285156 0.390625 -6.328125 C 0.390625 -6.472656 0.378906 -6.546875 0.359375 -6.546875 C 0.285156 -6.472656 0.25 -6.378906 0.25 -6.265625 Z M 3.734375 -5.875 C 3.773438 -5.875 3.804688 -5.882812 3.828125 -5.90625 L 3.90625 -5.953125 L 3.96875 -6.015625 L 3.625 -6.09375 L 3.65625 -5.984375 C 3.65625 -5.910156 3.679688 -5.875 3.734375 -5.875 Z M 3.515625 -6.015625 L 3.09375 -5.953125 L 3.515625 -5.84375 Z M 4.46875 -5.765625 L 4.640625 -5.765625 L 4.6875 -5.90625 L 4.5 -5.90625 Z M 4.046875 -5.34375 C 4.046875 -5.34375 4.039062 -5.335938 4.03125 -5.328125 C 4.019531 -5.316406 4.015625 -5.3125 4.015625 -5.3125 C 4.054688 -5.238281 4.171875 -5.203125 4.359375 -5.203125 C 4.410156 -5.203125 4.472656 -5.25 4.546875 -5.34375 L 4.828125 -5.34375 L 4.859375 -5.390625 L 4.859375 -5.421875 L 4.890625 -5.484375 L 4.578125 -5.5625 C 4.554688 -5.539062 4.546875 -5.503906 4.546875 -5.453125 L 4.5 -5.453125 L 4.46875 -5.484375 L 4.328125 -5.484375 C 4.234375 -5.484375 4.175781 -5.460938 4.15625 -5.421875 C 4.125 -5.421875 4.101562 -5.40625 4.09375 -5.375 C 4.082031 -5.351562 4.078125 -5.34375 4.078125 -5.34375 Z M 5.671875 -5.3125 L 5.734375 -5.28125 L 5.734375 -5.25 L 5.8125 -5.25 L 5.875 -5.203125 C 6.0625 -5.203125 6.15625 -5.273438 6.15625 -5.421875 L 5.90625 -5.453125 Z M 3.3125 -5.421875 L 3.171875 -5.3125 C 3.234375 -5.238281 3.3125 -5.203125 3.40625 -5.203125 L 3.484375 -5.25 L 3.546875 -5.28125 L 3.65625 -5.3125 Z M 5 -5.3125 L 5.203125 -5.3125 L 5.203125 -5.421875 L 5 -5.421875 Z M 3.96875 -5.140625 C 3.925781 -5.085938 3.90625 -5.050781 3.90625 -5.03125 L 4.296875 -5 L 4.296875 -5.140625 L 4.015625 -5.203125 C 4.015625 -5.160156 4 -5.140625 3.96875 -5.140625 Z M 5.53125 -5.171875 L 5.53125 -5.203125 L 5.28125 -5.203125 L 5.28125 -5 L 5.5625 -5.03125 L 5.5625 -5.140625 Z M 4.921875 -4.71875 L 4.859375 -4.96875 C 4.671875 -4.894531 4.539062 -4.820312 4.46875 -4.75 C 4.488281 -4.726562 4.5625 -4.71875 4.6875 -4.71875 Z M 3.09375 -4.71875 L 3.40625 -4.71875 L 3.40625 -4.828125 L 3.09375 -4.828125 Z M 4.71875 -4.5 L 4.71875 -4.390625 L 4.921875 -4.390625 L 4.921875 -4.5 Z M 5.53125 -4.1875 C 5.664062 -4.257812 5.664062 -4.328125 5.53125 -4.390625 L 5.484375 -4.359375 L 5.390625 -4.359375 C 5.390625 -4.285156 5.410156 -4.25 5.453125 -4.25 Z M 3.3125 -4.078125 C 3.375 -4.035156 3.394531 -4 3.375 -3.96875 L 3.59375 -3.96875 C 3.65625 -4.019531 3.6875 -4.054688 3.6875 -4.078125 L 3.734375 -4.078125 C 3.734375 -4.097656 3.742188 -4.113281 3.765625 -4.125 C 3.785156 -4.144531 3.796875 -4.15625 3.796875 -4.15625 C 3.753906 -4.15625 3.734375 -4.164062 3.734375 -4.1875 L 3.546875 -4.1875 C 3.390625 -4.226562 3.296875 -4.265625 3.265625 -4.296875 C 3.265625 -4.242188 3.253906 -4.207031 3.234375 -4.1875 C 3.234375 -4.1875 3.234375 -4.171875 3.234375 -4.140625 C 3.234375 -4.117188 3.234375 -4.109375 3.234375 -4.109375 L 3.265625 -4.078125 Z M 5.203125 -3.828125 C 5.296875 -3.785156 5.390625 -3.765625 5.484375 -3.765625 C 5.578125 -3.765625 5.640625 -3.773438 5.671875 -3.796875 L 5.703125 -3.796875 L 5.703125 -4.078125 C 5.628906 -4.078125 5.570312 -4.101562 5.53125 -4.15625 C 5.5 -4.125 5.46875 -4.109375 5.4375 -4.109375 C 5.40625 -4.109375 5.375 -4.097656 5.34375 -4.078125 L 5.3125 -4.15625 L 5.203125 -4.109375 C 5.160156 -4.066406 5.160156 -3.972656 5.203125 -3.828125 Z M 0.21875 -3.828125 L 0.078125 -3.734375 L 0.171875 -3.625 Z M 5.03125 -3.65625 L 5.140625 -3.59375 L 5.28125 -3.765625 L 5.140625 -3.796875 Z M 4.296875 -3.375 C 4.410156 -3.375 4.523438 -3.394531 4.640625 -3.4375 C 4.765625 -3.488281 4.835938 -3.5625 4.859375 -3.65625 L 4.6875 -3.65625 C 4.488281 -3.65625 4.359375 -3.609375 4.296875 -3.515625 Z M 4.546875 -3.34375 C 4.472656 -3.25 4.472656 -3.175781 4.546875 -3.125 L 4.5 -3.03125 L 4.546875 -2.984375 L 4.546875 -2.921875 L 4.71875 -2.890625 L 4.828125 -3.265625 C 4.734375 -3.316406 4.640625 -3.34375 4.546875 -3.34375 Z M 5.0625 -2.921875 C 5.09375 -2.898438 5.15625 -2.890625 5.25 -2.890625 L 5.34375 -2.84375 L 5.421875 -2.84375 C 5.492188 -2.84375 5.546875 -2.851562 5.578125 -2.875 C 5.609375 -2.90625 5.625 -2.957031 5.625 -3.03125 L 5.3125 -3.03125 C 5.238281 -3.03125 5.15625 -3.050781 5.0625 -3.09375 L 5 -2.921875 Z M 3.828125 -2.953125 L 3.515625 -2.953125 L 3.515625 -2.8125 L 3.828125 -2.8125 Z M 5.5625 -2.640625 C 5.46875 -2.640625 5.378906 -2.59375 5.296875 -2.5 C 5.210938 -2.40625 5.160156 -2.347656 5.140625 -2.328125 L 5.421875 -2.25 C 5.628906 -2.320312 5.769531 -2.453125 5.84375 -2.640625 Z M 5.0625 -2.53125 L 4.78125 -2.53125 C 4.78125 -2.507812 4.769531 -2.492188 4.75 -2.484375 C 4.726562 -2.472656 4.71875 -2.46875 4.71875 -2.46875 L 4.640625 -2.328125 C 4.578125 -2.296875 4.53125 -2.25 4.5 -2.1875 L 4.5 -2.046875 C 4.644531 -2.046875 4.71875 -2.03125 4.71875 -2 L 4.6875 -1.859375 C 4.6875 -1.765625 4.695312 -1.707031 4.71875 -1.6875 L 4.921875 -1.765625 L 5.03125 -1.859375 L 5.0625 -2.25 L 4.890625 -2.28125 C 4.984375 -2.28125 5.039062 -2.296875 5.0625 -2.328125 Z M 5.3125 -1.90625 C 5.382812 -1.90625 5.488281 -1.953125 5.625 -2.046875 C 5.582031 -2.085938 5.457031 -2.109375 5.25 -2.109375 Z M 5.84375 -1.96875 L 5.59375 -1.96875 L 5.484375 -1.765625 L 5.765625 -1.765625 C 5.816406 -1.804688 5.84375 -1.851562 5.84375 -1.90625 Z M 5.84375 -1.96875 "/></g></g></g><g fill="#00aee7" fill-opacity="1"><g transform="translate(25.55853, 56.493069)"><g><path d="M 1.453125 -0.671875 L 3.875 -0.671875 L 3.875 0 L 0.671875 0 L 0.671875 -6.171875 L 1.453125 -6.171875 Z M 1.453125 -0.671875 "/></g></g></g><g fill="#00aee7" fill-opacity="1"><g transform="translate(31.612279, 56.493069)"><g><path d="M 1.46875 0 L 0.703125 0 L 0.703125 -6.171875 L 1.46875 -6.171875 Z M 1.46875 0 "/></g></g></g><g fill="#00aee7" fill-opacity="1"><g transform="translate(35.711519, 56.493069)"><g><path d="M 4.703125 0 L 3.921875 0 L 1.453125 -4.765625 L 1.453125 0 L 0.671875 0 L 0.671875 -6.171875 L 1.453125 -6.171875 L 3.921875 -1.390625 L 3.921875 -6.171875 L 4.703125 -6.171875 Z M 4.703125 0 "/></g></g></g><g fill="#00aee7" fill-opacity="1"><g transform="translate(43.015978, 56.493069)"><g><path d="M 2.046875 -2.84375 L 1.4375 -2.109375 L 1.4375 0 L 0.671875 0 L 0.671875 -6.171875 L 1.4375 -6.171875 L 1.4375 -3.1875 L 1.953125 -3.875 L 3.609375 -6.171875 L 4.546875 -6.171875 L 2.546875 -3.453125 L 4.703125 0 L 3.78125 0 Z M 2.046875 -2.84375 "/></g></g></g><g fill="#00aee7" fill-opacity="1"><g transform="translate(49.676001, 56.493069)"><g><path d="M 3.625 -2.859375 L 1.4375 -2.859375 L 1.4375 -0.671875 L 3.984375 -0.671875 L 3.984375 0 L 0.671875 0 L 0.671875 -6.171875 L 3.9375 -6.171875 L 3.9375 -5.5 L 1.4375 -5.5 L 1.4375 -3.515625 L 3.625 -3.515625 Z M 3.625 -2.859375 "/></g></g></g><g fill="#00aee7" fill-opacity="1"><g transform="translate(55.916296, 56.493069)"><g><path d="M 2.53125 -2.5 L 1.453125 -2.5 L 1.453125 0 L 0.671875 0 L 0.671875 -6.171875 L 2.390625 -6.171875 C 2.992188 -6.171875 3.453125 -6.015625 3.765625 -5.703125 C 4.078125 -5.390625 4.234375 -4.925781 4.234375 -4.3125 C 4.234375 -3.9375 4.148438 -3.601562 3.984375 -3.3125 C 3.816406 -3.03125 3.578125 -2.816406 3.265625 -2.671875 L 4.46875 -0.046875 L 4.46875 0 L 3.625 0 Z M 1.453125 -3.171875 L 2.390625 -3.171875 C 2.710938 -3.171875 2.96875 -3.273438 3.15625 -3.484375 C 3.351562 -3.691406 3.453125 -3.96875 3.453125 -4.3125 C 3.453125 -5.101562 3.09375 -5.5 2.375 -5.5 L 1.453125 -5.5 Z M 1.453125 -3.171875 "/></g></g></g><g clip-path="url(#6d3b253293)"><path fill="#00aee7" d="M 19.632812 30.074219 C 19.214844 30.074219 18.878906 29.738281 18.878906 29.320312 C 18.878906 28.90625 19.214844 28.566406 19.632812 28.566406 C 20.050781 28.566406 20.386719 28.90625 20.386719 29.320312 C 20.386719 29.738281 20.050781 30.074219 19.632812 30.074219 Z M 20.144531 29.089844 C 20.09375 28.996094 20.023438 28.910156 19.929688 28.863281 C 19.839844 28.8125 19.726562 28.800781 19.632812 28.824219 C 20.007812 28.917969 20.191406 29.300781 20.007812 29.652344 C 20.089844 29.59375 20.148438 29.507812 20.175781 29.402344 C 20.199219 29.300781 20.183594 29.191406 20.144531 29.089844 Z M 15.476562 43.980469 C 15.476562 44.273438 15.714844 44.511719 16.007812 44.511719 C 16.300781 44.511719 16.539062 44.273438 16.539062 43.980469 C 16.539062 43.6875 16.300781 43.449219 16.007812 43.449219 C 15.714844 43.449219 15.476562 43.6875 15.476562 43.980469 Z M 16.621094 42.5625 C 16.621094 42.816406 16.828125 43.023438 17.082031 43.023438 C 17.335938 43.023438 17.542969 42.816406 17.542969 42.5625 C 17.542969 42.308594 17.335938 42.101562 17.082031 42.101562 C 16.828125 42.101562 16.621094 42.308594 16.621094 42.5625 Z M 18 32.410156 C 17.507812 32.410156 17.105469 32.015625 17.105469 31.523438 C 17.105469 31.023438 17.507812 30.628906 18 30.628906 C 18.492188 30.628906 18.894531 31.023438 18.894531 31.523438 C 18.894531 32.015625 18.492188 32.410156 18 32.410156 Z M 18 30.804688 C 17.601562 30.804688 17.28125 31.125 17.28125 31.523438 C 17.28125 31.914062 17.601562 32.242188 18 32.242188 C 18.394531 32.242188 18.71875 31.914062 18.71875 31.523438 C 18.71875 31.125 18.394531 30.804688 18 30.804688 Z M 22.40625 32.324219 C 22.40625 32.839844 21.988281 33.253906 21.476562 33.253906 C 20.957031 33.253906 20.546875 32.839844 20.546875 32.324219 C 20.546875 31.8125 20.957031 31.398438 21.476562 31.398438 C 21.988281 31.398438 22.40625 31.8125 22.40625 32.324219 Z M 21.9375 32.726562 C 22.039062 32.664062 22.113281 32.550781 22.140625 32.421875 C 22.167969 32.296875 22.148438 32.160156 22.105469 32.039062 C 22.042969 31.925781 21.953125 31.820312 21.835938 31.757812 C 21.726562 31.699219 21.589844 31.683594 21.476562 31.714844 C 21.941406 31.824219 22.164062 32.300781 21.9375 32.726562 Z M 18.523438 31.269531 C 18.472656 31.164062 18.390625 31.074219 18.289062 31.023438 C 18.1875 30.96875 18.070312 30.957031 17.96875 30.984375 C 18.371094 31.101562 18.550781 31.492188 18.371094 31.871094 C 18.460938 31.8125 18.527344 31.714844 18.554688 31.605469 C 18.582031 31.496094 18.566406 31.375 18.523438 31.269531 Z M 17.351562 40.28125 C 17.425781 40.773438 17.847656 41.132812 18.339844 41.132812 L 20.214844 41.132812 C 19.886719 40.742188 19.734375 40.269531 19.707031 39.832031 C 19.699219 39.632812 19.769531 39.441406 19.902344 39.300781 C 20.039062 39.152344 20.230469 39.074219 20.429688 39.074219 C 20.472656 39.074219 20.507812 39.074219 20.546875 39.082031 C 20.761719 39.113281 20.972656 39.132812 21.179688 39.132812 C 21.765625 39.132812 22.332031 38.992188 22.878906 38.695312 L 23.445312 35.007812 L 18.988281 34.601562 L 16.476562 34.601562 Z M 27.347656 35.832031 L 26.433594 35.476562 L 26.464844 35.394531 L 30.011719 26.34375 C 30.074219 26.191406 30.238281 26.121094 30.382812 26.175781 L 30.761719 26.328125 C 30.910156 26.382812 30.980469 26.546875 30.925781 26.699219 L 27.378906 35.753906 Z M 29.449219 29.847656 C 29.679688 29.234375 29.917969 28.625 30.097656 27.988281 C 29.800781 28.578125 29.554688 29.191406 29.308594 29.792969 C 29.078125 30.410156 28.839844 31.023438 28.660156 31.65625 C 28.960938 31.070312 29.203125 30.457031 29.449219 29.847656 Z M 18.15625 43.824219 C 18.15625 44.183594 18.445312 44.472656 18.804688 44.472656 C 19.164062 44.472656 19.457031 44.183594 19.457031 43.824219 C 19.457031 43.464844 19.164062 43.171875 18.804688 43.171875 C 18.445312 43.171875 18.15625 43.464844 18.15625 43.824219 Z M 19.320312 42.101562 C 19.320312 41.902344 19.15625 41.738281 18.957031 41.738281 C 18.757812 41.738281 18.59375 41.902344 18.59375 42.101562 C 18.59375 42.300781 18.757812 42.464844 18.957031 42.464844 C 19.15625 42.464844 19.320312 42.300781 19.320312 42.101562 Z M 22.277344 29.335938 C 22.246094 29.277344 22.199219 29.222656 22.136719 29.191406 C 22.078125 29.160156 22.007812 29.15625 21.949219 29.175781 C 22.179688 29.257812 22.273438 29.464844 22.183594 29.6875 C 22.296875 29.625 22.332031 29.460938 22.277344 29.335938 Z M 20.429688 39.449219 C 20.449219 39.449219 20.472656 39.449219 20.492188 39.457031 C 20.722656 39.492188 20.953125 39.511719 21.179688 39.511719 C 21.746094 39.511719 22.289062 39.390625 22.808594 39.152344 C 23.757812 38.726562 24.640625 37.914062 25.515625 36.710938 L 25.855469 35.84375 C 25.898438 35.742188 25.992188 35.675781 26.097656 35.675781 C 26.132812 35.675781 26.164062 35.683594 26.195312 35.699219 L 27.375 36.160156 C 27.511719 36.210938 27.582031 36.359375 27.523438 36.496094 L 27.183594 37.367188 C 28.828125 39.003906 28.78125 40.902344 28.253906 42.042969 C 27.882812 42.847656 27.109375 43.632812 26.0625 43.632812 C 25.621094 43.632812 25.128906 43.496094 24.601562 43.152344 C 24.335938 43.265625 24.070312 43.3125 23.8125 43.3125 C 22.683594 43.3125 21.746094 42.363281 21.753906 41.574219 C 21.324219 41.5 21 41.339844 20.753906 41.132812 C 20.296875 40.765625 20.109375 40.246094 20.085938 39.808594 C 20.074219 39.605469 20.234375 39.449219 20.429688 39.449219 Z M 27.390625 41.539062 C 27.820312 40.835938 27.679688 39.894531 27.230469 39.421875 C 27.496094 40.894531 26.195312 42.097656 25.539062 42.375 C 26.5 42.492188 27.066406 42.058594 27.390625 41.539062 Z M 24.851562 41.203125 C 24.851562 41.203125 24.480469 41.484375 24.078125 41.800781 C 25.148438 41.96875 26.351562 40.40625 26.066406 38.964844 C 25.550781 40.304688 24.617188 41.011719 23.40625 41.273438 C 23.570312 41.375 24.363281 41.582031 24.851562 41.203125 Z M 22.585938 40.46875 C 24.238281 40.691406 25.222656 39.445312 25.339844 38.359375 C 24.898438 38.941406 23.976562 39.84375 22.660156 40.113281 C 22.339844 40.183594 21.992188 40.214844 21.621094 40.195312 C 21.96875 40.339844 22.289062 40.429688 22.585938 40.46875 Z M 24.011719 34.097656 C 24.011719 33.820312 23.789062 33.597656 23.511719 33.597656 L 16.476562 33.597656 C 16.199219 33.597656 15.972656 33.820312 15.972656 34.097656 C 15.972656 34.375 16.199219 34.601562 16.476562 34.601562 L 23.511719 34.601562 C 23.789062 34.601562 24.011719 34.375 24.011719 34.097656 Z M 22 30.015625 C 21.707031 30.015625 21.464844 29.777344 21.464844 29.488281 C 21.464844 29.191406 21.707031 28.953125 22 28.953125 C 22.289062 28.953125 22.527344 29.191406 22.527344 29.488281 C 22.527344 29.777344 22.289062 30.015625 22 30.015625 Z M 22 29.082031 C 21.773438 29.082031 21.589844 29.261719 21.589844 29.488281 C 21.589844 29.707031 21.773438 29.890625 22 29.890625 C 22.21875 29.890625 22.402344 29.707031 22.402344 29.488281 C 22.402344 29.261719 22.21875 29.082031 22 29.082031 Z M 22 29.082031 " fill-opacity="1" fill-rule="nonzero"/></g></svg>